<?xml version="1.0" encoding="utf-8"?>
<!-- Generator: Adobe Illustrator 27.0.0, SVG Export Plug-In . SVG Version: 6.00 Build 0)  -->
<svg version="1.1" id="Layer_1" xmlns="http://www.w3.org/2000/svg" xmlns:xlink="http://www.w3.org/1999/xlink" x="0px" y="0px"
	 viewBox="0 0 172.9 56.7" style="enable-background:new 0 0 172.9 56.7;" xml:space="preserve">
<style type="text/css">
	.st0{fill-rule:evenodd;clip-rule:evenodd;fill:#523456;}
	.st1{enable-background:new    ;}
	.st2{fill:#523456;}
	.st3{fill-rule:evenodd;clip-rule:evenodd;fill:#54375B;}
	.st4{fill-rule:evenodd;clip-rule:evenodd;fill:#A59882;}
	.st5{fill-rule:evenodd;clip-rule:evenodd;fill:#A19A84;}
</style>
<g id="Layer_1-2">
	<path class="st0" d="M62.8,31.5h-1v-3.6h1c1.3,0,2,0.5,2,1.7C64.8,31.1,64,31.5,62.8,31.5 M73.8,26.6h-5.6v9.7h5.7v-1.4h-3.8V32
		h3.1v-1.4h-3.1V28h3.6L73.8,26.6L73.8,26.6z M86.6,35.1c-1.2,0-2.1-0.8-2.1-3h4.2C88.7,34.3,87.9,35.1,86.6,35.1z M86.6,26.4
		c-1.4,0-2.4,0.4-3.4,1.2l0.9,1c0.6-0.5,1.4-0.9,2.4-0.9c1.4,0,2.2,0.9,2.3,2.9h-6c0,0.3-0.1,0.6-0.1,0.8c0,3.1,1.3,4.9,3.9,4.9
		c2.4,0,4-1.7,4-5.2C90.7,28,89.1,26.4,86.6,26.4z M129.5,26.4h-1.8v9.7h1.8V26.4z M128.5,23.2c-0.7,0-1.1,0.5-1.1,1.1
		s0.5,1.1,1.1,1.1s1.1-0.5,1.1-1.1S129.2,23.2,128.5,23.2z M100.6,26.4h-7.2v1.5H96v8.2h1.9v-8.2h2.5
		C100.4,27.9,100.6,26.4,100.6,26.4z M104.5,34.9c-1.2,0-2.1-0.8-2.1-3h4.2C106.6,34.1,105.8,34.9,104.5,34.9z M104.5,26.2
		c-1.4,0-2.4,0.4-3.4,1.2l0.9,1c0.6-0.5,1.4-0.9,2.4-0.9c1.4,0,2.2,0.9,2.3,2.9h-6c0,0.3-0.1,0.6-0.1,0.8c0,3.1,1.3,4.9,3.9,4.9
		c2.4,0,4-1.7,4-5.2C108.6,27.8,107,26.2,104.5,26.2z M115.6,36.1h1.9v-9.7h-1.9v3.9h-3.4v-3.9h-1.8v9.7h1.8v-4.3h3.4V36.1z
		 M122.5,26.2c-1.9,0-3.3,1.1-3.3,2.7c0,1.5,0.9,2.3,2.9,2.9c1.5,0.5,1.9,0.8,1.9,1.6c0,0.9-0.7,1.4-1.8,1.4s-1.8-0.4-2.5-1
		l-0.9,1.1c0.8,0.8,1.9,1.3,3.5,1.3c2.3,0,3.7-1.2,3.7-3s-1.2-2.5-2.9-3.1c-1.6-0.5-2-0.8-2-1.5c0-0.8,0.6-1.1,1.5-1.1
		c0.8,0,1.5,0.2,2.2,0.8l0.9-1C124.9,26.6,123.9,26.2,122.5,26.2L122.5,26.2z M133.6,26.4h-1.9v9.7h5.5l0.2-1.5h-3.9V26.4z
		 M79.1,36.4l0.4,1.5l-1.1,0.3l-0.5-1.7c-1.5,0-2.4-0.5-3.2-1.3l0.9-1.1c0.7,0.6,1.5,1,2.5,1s1.8-0.5,1.8-1.4c0-0.8-0.4-1.2-1.9-1.6
		c-2-0.6-2.9-1.4-2.9-2.9c0-1.6,1.4-2.7,3.3-2.7c1.4,0,2.4,0.4,3.2,1.2l-0.9,1c-0.7-0.6-1.4-0.8-2.2-0.8c-0.9,0-1.5,0.4-1.5,1.1
		c0,0.7,0.4,1,2,1.5c1.7,0.5,2.9,1.2,2.9,3.1C81.8,35,80.8,36.1,79.1,36.4L79.1,36.4z M62.8,26.6h-2.9v9.7h1.8v-3.4h1.1
		c2.2,0,3.8-1,3.8-3.2C66.7,27.6,65.2,26.6,62.8,26.6z"/>
	<g class="st1">
		<path class="st2" d="M67.4,47.4h-1l-0.3-3.3c-0.1-1.1-0.2-2.3-0.2-2.9l-1.8,5.4h-0.9l-1.9-5.4c0,0.8-0.1,2-0.2,3l-0.3,3.2h-1
			l0.7-7.1h1.4l1.8,5.3l1.7-5.3h1.4L67.4,47.4z"/>
	</g>
	<g class="st1">
		<path class="st2" d="M74.9,43.7c0,2.6-1.4,3.8-3.2,3.8c-2,0-3.2-1.3-3.2-3.6c0-0.1,0-0.3,0-0.5h5.3c-0.1-1.8-0.9-2.5-2.2-2.5
			c-0.8,0-1.5,0.3-2.1,0.7L69,41c0.8-0.6,1.6-0.9,2.7-0.9C73.7,40.2,74.9,41.3,74.9,43.7z M73.9,44.2h-4.3c0,1.9,0.9,2.6,2.1,2.6
			C72.9,46.8,73.8,46,73.9,44.2z"/>
		<path class="st2" d="M79.1,44.3h-1.3v3.1h-1v-7.1h2.1c2,0,3,0.7,3,2c0,1-0.6,1.6-1.8,1.9l2.2,3.2h-1.2L79.1,44.3z M79,43.6
			c1.2,0,1.8-0.4,1.8-1.4c0-0.9-0.6-1.3-1.9-1.3h-1.1v2.7H79z"/>
		<path class="st2" d="M84.8,47.4h-1v-7.1h1V47.4z M86,43.5l3.3,3.9h-1.2l-3.2-3.8l3.1-3.3h1.2L86,43.5z"/>
	</g>
	<g class="st1">
		<path class="st2" d="M96.2,43.7c0,2.6-1.4,3.8-3.2,3.8c-2,0-3.2-1.3-3.2-3.6c0-0.1,0-0.3,0-0.5h5.3c-0.1-1.8-0.9-2.5-2.2-2.5
			c-0.8,0-1.5,0.3-2.1,0.7L90.3,41c0.8-0.6,1.6-0.9,2.7-0.9C94.9,40.2,96.2,41.3,96.2,43.7z M95.1,44.2h-4.3c0,1.9,0.9,2.6,2.1,2.6
			C94.2,46.8,95,46,95.1,44.2z"/>
	</g>
	<g class="st1">
		<path class="st2" d="M102.1,41l-4.1,5.6h4l-0.1,0.8h-5v-0.7L101,41h-3.7v-0.8h4.8V41z"/>
		<path class="st2" d="M105,38.7c0,0.3-0.3,0.6-0.7,0.6c-0.4,0-0.7-0.3-0.7-0.6c0-0.3,0.3-0.6,0.7-0.6C104.7,38.1,105,38.3,105,38.7
			z M104.8,47.4h-1v-7.1h1V47.4z"/>
	</g>
	<g class="st1">
		<path class="st2" d="M62.7,8.4C62.9,8.7,63,8.9,63,9.2s-0.1,0.6-0.3,0.8s-0.5,0.3-0.8,0.3c-0.3,0-0.6-0.1-0.8-0.3
			s-0.3-0.5-0.3-0.8s0.1-0.6,0.3-0.8s0.5-0.3,0.8-0.3C62.2,8.1,62.5,8.2,62.7,8.4z M62.8,11.4v9.8h-1.8v-9.8H62.8z"/>
		<path class="st2" d="M69.6,11.5c0.5,0.2,1,0.5,1.4,0.9l-0.9,1.1c-0.3-0.3-0.7-0.5-1-0.6c-0.3-0.1-0.7-0.2-1.1-0.2
			c-0.4,0-0.8,0.1-1.1,0.3c-0.3,0.2-0.4,0.5-0.4,0.9c0,0.2,0.1,0.5,0.2,0.6c0.1,0.2,0.3,0.3,0.6,0.5c0.3,0.1,0.7,0.3,1.2,0.5
			c1,0.3,1.7,0.7,2.1,1.1c0.5,0.5,0.7,1.1,0.7,2c0,0.6-0.1,1.1-0.4,1.6s-0.7,0.8-1.3,1.1c-0.5,0.3-1.2,0.4-2,0.4
			c-0.7,0-1.4-0.1-2-0.4c-0.6-0.2-1.1-0.6-1.5-1l1-1.1c0.4,0.3,0.8,0.6,1.2,0.7c0.4,0.2,0.8,0.2,1.3,0.2c0.5,0,1-0.1,1.3-0.4
			c0.3-0.3,0.5-0.6,0.5-1.1c0-0.3-0.1-0.5-0.2-0.7c-0.1-0.2-0.3-0.4-0.6-0.5c-0.3-0.1-0.7-0.3-1.2-0.5c-1-0.3-1.8-0.7-2.2-1.2
			c-0.5-0.5-0.7-1.1-0.7-1.8c0-0.5,0.1-1,0.4-1.4c0.3-0.4,0.7-0.7,1.2-1c0.5-0.2,1.1-0.3,1.7-0.3C68.5,11.2,69.1,11.3,69.6,11.5z"/>
		<path class="st2" d="M81.9,21.3h-1.8l-0.3-4.1c-0.1-1.5-0.1-2.6-0.1-3.5v-0.5l-1.8,7.1h-1.7l-1.9-7.1c0,0.6,0,1.1,0,1.4
			c0,0.9,0,1.8-0.1,2.7L74,21.3h-1.8l0.8-9.8h2.4l1.7,6.9l1.6-6.9h2.4L81.9,21.3z"/>
		<path class="st2" d="M88.8,21.3L88.2,19H85l-0.6,2.3h-1.9l3-9.8h2.3l3,9.8H88.8z M85.3,17.6h2.5l-1.2-4.7L85.3,17.6z"/>
		<path class="st2" d="M98,11.4l-3.1,6.1v3.7H93v-3.7l-3.1-6.1h2l2,4.6l2-4.6H98z"/>
		<path class="st2" d="M100.9,11.4v9.8h-1.8v-9.8H100.9z"/>
		<path class="st2" d="M105,11.4v8.3h3.9l-0.2,1.5h-5.5v-9.8H105z"/>
		<path class="st2" d="M112.1,11.4v8.3h3.9l-0.2,1.5h-5.5v-9.8H112.1z"/>
		<path class="st2" d="M119.2,11.4v9.8h-1.8v-9.8H119.2z"/>
		<path class="st2" d="M130.9,12.5c0.9,0.7,1.3,2,1.3,3.8c0,1.8-0.4,3.1-1.3,3.9c-0.9,0.7-2,1.1-3.4,1.1h-2.6v-9.8h2.4
			C128.8,11.4,130,11.8,130.9,12.5z M126.8,12.8v7h0.9c0.8,0,1.5-0.3,1.9-0.8c0.5-0.5,0.7-1.4,0.7-2.8c0-0.9-0.1-1.7-0.4-2.2
			s-0.5-0.9-0.9-1c-0.4-0.2-0.9-0.3-1.4-0.3H126.8z"/>
		<path class="st2" d="M139.9,11.8c0.6,0.4,1.1,1,1.5,1.8s0.5,1.7,0.5,2.8c0,1.1-0.2,2-0.5,2.8c-0.3,0.8-0.8,1.4-1.5,1.8
			s-1.4,0.6-2.2,0.6c-0.9,0-1.6-0.2-2.2-0.6s-1.1-1-1.5-1.8c-0.3-0.8-0.5-1.7-0.5-2.8c0-1.1,0.2-2,0.5-2.8c0.3-0.8,0.8-1.4,1.5-1.8
			c0.6-0.4,1.4-0.6,2.2-0.6C138.5,11.2,139.3,11.4,139.9,11.8z M136.8,8.6c0.2,0.2,0.3,0.4,0.3,0.7c0,0.3-0.1,0.5-0.3,0.7
			c-0.2,0.2-0.4,0.3-0.7,0.3c-0.3,0-0.5-0.1-0.7-0.3c-0.2-0.2-0.3-0.4-0.3-0.7c0-0.3,0.1-0.5,0.3-0.7c0.2-0.2,0.4-0.3,0.7-0.3
			C136.4,8.3,136.6,8.4,136.8,8.6z M136,13.5c-0.4,0.6-0.6,1.5-0.6,2.8c0,2.5,0.8,3.7,2.3,3.7c0.7,0,1.3-0.3,1.7-0.9
			c0.4-0.6,0.6-1.5,0.6-2.8c0-1.3-0.2-2.2-0.6-2.8c-0.4-0.6-1-0.9-1.7-0.9S136.4,13,136,13.5z M139.9,8.6c0.2,0.2,0.3,0.4,0.3,0.7
			c0,0.3-0.1,0.5-0.3,0.7c-0.2,0.2-0.4,0.3-0.7,0.3c-0.3,0-0.5-0.1-0.7-0.3s-0.3-0.4-0.3-0.7c0-0.3,0.1-0.5,0.3-0.7
			c0.2-0.2,0.4-0.3,0.7-0.3C139.5,8.3,139.7,8.4,139.9,8.6z"/>
		<path class="st2" d="M150.4,11.4l-2.9,9.8h-2.2l-2.9-9.8h2l2.1,8.2l2-8.2H150.4z"/>
		<path class="st2" d="M153.3,11.4v8.3h3.9l-0.2,1.5h-5.5v-9.8H153.3z"/>
		<path class="st2" d="M164.1,12.5c0.7,0.8,1.1,2.1,1.1,3.7c0,1.2-0.2,2.1-0.5,2.9s-0.8,1.4-1.4,1.8c-0.6,0.4-1.3,0.6-2.1,0.6
			c-1.3,0-2.3-0.4-2.9-1.3c-0.7-0.9-1-2.1-1-3.7c0-0.2,0-0.5,0.1-0.8h6c0-1-0.2-1.8-0.6-2.3c-0.4-0.5-0.9-0.7-1.6-0.7
			c-0.5,0-0.9,0.1-1.2,0.2c-0.4,0.2-0.7,0.4-1.1,0.6l-0.9-1.1c0.5-0.4,1-0.7,1.5-0.9c0.5-0.2,1.2-0.3,1.8-0.3
			C162.4,11.2,163.4,11.6,164.1,12.5z M162.7,19.3c0.4-0.5,0.6-1.3,0.6-2.3H159c0,2,0.7,3.1,2.1,3.1
			C161.8,20.1,162.3,19.8,162.7,19.3z"/>
		<path class="st2" d="M172.6,11.4l-0.2,1.5h-2.5v8.4H168v-8.4h-2.6v-1.5H172.6z"/>
	</g>
	<path class="st0" d="M24,35c2.2-1.8,4.7-3.7,7.1-5.8c11.3-10.2,14.9-18.6-3.7-28l-0.2,0.2l0,0l0.3,1.2l-17,16.9l17-16.9
		c2.9,1.5,5.1,2.9,6.6,4.5c6.9,7.2-1,12.6-8.2,19c-2.2,1.9-4.3,3.9-6.2,5.9c0.2,1,0.1,2-0.1,2.9c3.2-3.4,7.8-6.2,11-8.4
		c-3.2,3.1-7.5,6.1-10.4,9.5C21.4,35.2,22.7,34.9,24,35 M16.3,44c-0.6-2.5,0.1-4.8,1.4-6.9c-0.4-0.4-0.8-0.9-1.1-1.3
		c-3.6,5.9-2.7,12,9.9,18.8l1.1,0.6c0-0.4-0.1-0.9-0.1-1.3c-5.3-2.7-7.5-4.9-8.8-7.2c-1.8-3-0.9-5.6,1.4-8.1c-0.5-0.2-1-0.5-1.5-0.9
		c-1.3,1.9-2.1,4-2,6.3l0.2,1.4L16.3,44L16.3,44z"/>
	<path class="st3" d="M19.3,37.2L19.3,37.2c1.5-1.6,4-1.7,5.6-0.2l0,0l0,0C23.5,38.6,20.9,38.7,19.3,37.2"/>
	<path class="st3" d="M18.5,36.1L18.5,36.1L18.5,36.1c-1.9-1-2.7-3.4-1.7-5.4l0,0l0,0C18.8,31.8,19.5,34.2,18.5,36.1"/>
	<path class="st4" d="M45.8,17.7l-0.7,0.7l-0.7,0.7c-0.1,0.1-0.3,0.2-0.5,0.1c-0.2,0-0.3-0.2-0.3-0.4l-0.2-0.9L43.1,17
		c0-0.2,0-0.3,0.1-0.5c0.1-0.1,0.3-0.2,0.5-0.1l0.9,0.2l0.9,0.2c0.2,0.1,0.3,0.2,0.3,0.4C46,17.4,45.9,17.6,45.8,17.7"/>
	<path class="st4" d="M6.6,34.4l0.7-0.7l0.7-0.7c0.1-0.1,0.3-0.2,0.5-0.1c0.2,0,0.3,0.2,0.3,0.3L9,34.2l0.2,0.9
		c0.1,0.2,0,0.3-0.1,0.5s-0.3,0.2-0.5,0.1l-0.9-0.2l-0.9-0.2c-0.2,0-0.3-0.2-0.3-0.3C6.4,34.7,6.4,34.6,6.6,34.4"/>
	<path class="st5" d="M5.7,33.1l1.9,15.6l0.1,0c0.4-0.2,0.8-0.4,1.3-0.6c0.4-0.2,0.9-0.3,1.3-0.5c0.5-0.1,0.9-0.2,1.4-0.3
		s1-0.2,1.5-0.2c0.5,0,1-0.1,1.4-0.1c0.5,0,1,0,1.5,0l0.4,0l0.3,0c0.3,0.4,0.6,0.8,1,1.2c-0.2,0-0.6-0.1-0.8-0.1c-0.2,0-0.5,0-0.7,0
		c-0.5,0-1.1,0-1.6,0c-0.5,0-1,0-1.4,0.1c-0.6,0.1-1.1,0.1-1.6,0.2c-0.5,0.1-1,0.2-1.5,0.4s-1,0.3-1.4,0.5S7.9,49.7,7.5,50l-0.7,0.4
		C5.7,44.7,5.2,37.9,4.5,32L5.7,33.1L5.7,33.1z M12.9,44.5c0.9,0,1.7,0,2.6,0.1c0.1,0.4,0.3,0.8,0.6,1.1h-0.1
		c-1-0.2-2.1-0.2-3.1-0.2c-1,0-1.9,0.1-2.9,0.3L9.4,46c-0.5-3.7-0.8-6.1-1.2-9.7l0.6,0.2c0.1,0,0.3,0,0.4-0.1l1.1,8.3h0.1
		C11.2,44.6,12,44.5,12.9,44.5L12.9,44.5z M6.4,22.2l-0.7,0.7l-0.7,0.7L4,18.3l1.5-1L6.4,22.2L6.4,22.2z M10.1,18.4L9.6,19l-2.2,2.2
		L6,13.1l3.3-0.5L10.1,18.4z M19,9.5c-2.6,2.6-5.3,5.3-7.9,7.9L9.9,7.2h0.1c0.4,0,0.7,0.1,1.1,0.1c0.4,0,0.7,0.1,1.1,0.1
		c0.4,0.1,0.7,0.1,1.1,0.2c0.4,0.1,0.8,0.1,1.1,0.2c0.4,0.1,0.8,0.2,1.2,0.3c0.4,0.1,0.8,0.2,1.2,0.4C17.2,8.7,17.6,8.8,18,9
		C18.3,9.2,18.7,9.3,19,9.5L19,9.5z M27.2,1.3c-2.4,2.3-4.7,4.7-7.1,7.1l-0.3,0.3c-0.1-0.1-0.3-0.2-0.5-0.3C19,8.3,18.6,8.1,18.2,8
		S17.4,7.6,17,7.5c-0.4-0.1-0.8-0.3-1.2-0.4C15.4,7,15,6.9,14.6,6.8c-0.4-0.1-0.9-0.2-1.4-0.3c-0.4-0.1-0.9-0.1-1.3-0.2
		c-0.4-0.1-0.9-0.1-1.3-0.1S9.8,6.2,9.3,6.1l-0.4,0H8.7l0.5,5.4l-4.4,0.7l0.5,4l-2.5,1.6C3.3,20,3.7,22.3,4,24.5l0,0
		c-0.3,0.3-0.5,0.5-0.8,0.8c-1,1-1.9,1.9-2.9,2.9l3.2,2.9l1,0.9l0,0l1.2,1.1l2.2,2l0.3-0.4l0.3-0.3l-4.2-3.7l-2.7-2.4l8.9-8.8
		l17-16.9C27.4,2.1,27.3,1.7,27.2,1.3L27.2,1.3z M48.6,21.4l-0.2-0.2L48.6,21.4z M38.2,44.8c2.6-2.5,5.1-5,7.7-7.6l-1.1,7.5h-0.1
		c-0.7-0.1-1.3-0.2-2.1-0.2c-0.8,0-1.6,0-2.4,0c-0.8,0.1-1.4,0.1-2,0.2C38.3,44.8,38.2,44.8,38.2,44.8z M35.6,47.4L35.6,47.4l1-1
		c0.6-0.2,1.1-0.3,1.7-0.4c0.6-0.1,1.3-0.2,2.2-0.3c0.8-0.1,1.7-0.1,2.5,0c0.8,0,1.5,0.2,2.2,0.3l0.6,0.1c0.5-3.3,1-6.7,1.4-10
		l0.9-0.9l1.5-1.5l-2.1,15l-0.1,0c-0.4-0.2-0.8-0.4-1.3-0.6c-0.4-0.2-0.9-0.3-1.3-0.5c-0.5-0.1-0.9-0.2-1.4-0.3s-1-0.2-1.5-0.2
		c-0.5,0-1-0.1-1.5-0.1c-0.5,0-1.1,0-1.6,0c-0.5,0-1.1,0.1-1.7,0.2C36.6,47.2,36.1,47.3,35.6,47.4L35.6,47.4z M27.7,53.8
		c0,0.4,0.1,0.9,0.1,1.3c1.7-1.7,3.8-3.8,5.5-5.5l1-1l0.9-0.2c0.6-0.1,1.2-0.2,1.7-0.3c0.6-0.1,1.1-0.1,1.7-0.2c0.6,0,1.1,0,1.7,0
		c0.5,0,1,0,1.5,0.1c0.5,0.1,1.1,0.1,1.6,0.2s1,0.2,1.5,0.4s1,0.3,1.4,0.5s0.9,0.4,1.3,0.7l0.7,0.4c1.1-5.8,1.7-12.1,2.5-18l0,0
		c0.3-0.4,0.7-0.7,1.1-1c1.1-1.1,2.2-2.1,3.3-3.2l-3.5-3.6l-0.8-0.8l0,0L50,22.9L49.2,22l-0.7-0.7c0.3-1.5,0.6-2.9,0.9-4.4l1.5,1
		L50,22.9l0,0l0.9,0.9c0.4-2.1,0.8-4.2,1.2-6.3l-2.5-1.6l0.5-4l-4.4-0.6L46,6c-1.7,0-2.9,0.1-4.7,0.4c-1.4,0.3-2.7,0.7-4.3,1.3h0
		c0.3,0.3,0.5,0.6,0.8,0.8c0.5-0.2,0.9-0.3,1.3-0.5c0.4-0.1,0.8-0.3,1.2-0.3c0.4-0.1,0.7-0.2,1.1-0.2c0.4-0.1,0.8-0.1,1.1-0.2
		c0.4-0.1,0.7-0.1,1.1-0.2C44.1,7.1,44.5,7,44.8,7h0.1L44,15.9l0.7,0.2l0.3,0.1l0.5-3.9l3.3,0.5c-0.4,2.5-0.8,5.1-1.3,7.6l0.8,0.8
		l0,0l-0.8-0.8l-2.4-2.5L45,18.2l-0.4,0.4c3.1,3.2,6.1,6.3,9.2,9.5C45,36.8,36.4,45.1,27.7,53.8L27.7,53.8z"/>
	<path class="st3" d="M40.6,9.6c1.4,0,2.5,1.1,2.5,2.5s-1.1,2.5-2.5,2.5s-2.5-1.1-2.5-2.5S39.2,9.6,40.6,9.6"/>
</g>
</svg>
