<?xml version="1.0" encoding="UTF-8"?>
<svg id="Layer_2" data-name="Layer 2" xmlns="http://www.w3.org/2000/svg" viewBox="0 0 54.9 54">
  <defs>
    <style>
      .cls-1 {
        fill: #a19a84;
      }

      .cls-1, .cls-2, .cls-3, .cls-4 {
        fill-rule: evenodd;
      }

      .cls-2 {
        fill: #54375b;
      }

      .cls-3 {
        fill: #523456;
      }

      .cls-4 {
        fill: #a59882;
      }
    </style>
  </defs>
  <g id="Layer_1-2" data-name="Layer 1">
    <g id="Layer_1-2" data-name="Layer 1-2">
      <path class="cls-3" d="M23.7,33.8c2.2-1.8,4.7-3.7,7.1-5.8,11.3-10.2,14.9-18.6-3.7-28l-.2,.2h0l.3,1.2L10.2,18.3,27.2,1.4c2.9,1.5,5.1,2.9,6.6,4.5,6.9,7.2-1,12.6-8.2,19-2.2,1.9-4.3,3.9-6.2,5.9,.2,1,.1,2-.1,2.9,3.2-3.4,7.8-6.2,11-8.4-3.2,3.1-7.5,6.1-10.4,9.5,1.2-.8,2.5-1.1,3.8-1m-7.7,9c-.6-2.5,.1-4.8,1.4-6.9-.4-.4-.8-.9-1.1-1.3-3.6,5.9-2.7,12,9.9,18.8l1.1,.6c0-.4-.1-.9-.1-1.3-5.3-2.7-7.5-4.9-8.8-7.2-1.8-3-.9-5.6,1.4-8.1-.5-.2-1-.5-1.5-.9-1.3,1.9-2.1,4-2,6.3l.2,1.4-.5-1.4h0Z"/>
      <path class="cls-2" d="M19,36h0c1.5-1.6,4-1.7,5.6-.2h0c-1.4,1.6-4,1.7-5.6,.2"/>
      <path class="cls-2" d="M18.2,34.9h0c-1.9-1-2.7-3.4-1.7-5.4h0c2,1.1,2.7,3.5,1.7,5.4"/>
      <path class="cls-4" d="M45.5,16.5l-.7,.7-.7,.7c-.1,.1-.3,.2-.5,.1-.2,0-.3-.2-.3-.4l-.2-.9-.3-.9c0-.2,0-.3,.1-.5,.1-.1,.3-.2,.5-.1l.9,.2,.9,.2c.2,.1,.3,.2,.3,.4,.2,.2,.1,.4,0,.5"/>
      <path class="cls-4" d="M6.3,33.2l.7-.7,.7-.7c.1-.1,.3-.2,.5-.1,.2,0,.3,.2,.3,.3l.2,1,.2,.9c.1,.2,0,.3-.1,.5s-.3,.2-.5,.1l-.9-.2-.9-.2c-.2,0-.3-.2-.3-.3-.1-.3-.1-.4,.1-.6"/>
      <path class="cls-1" d="M5.4,31.9l1.9,15.6h.1c.4-.2,.8-.4,1.3-.6,.4-.2,.9-.3,1.3-.5,.5-.1,.9-.2,1.4-.3s1-.2,1.5-.2,1-.1,1.4-.1h2.2c.3,.4,.6,.8,1,1.2-.2,0-.6-.1-.8-.1h-2.3c-.5,0-1,0-1.4,.1-.6,.1-1.1,.1-1.6,.2-.5,.1-1,.2-1.5,.4s-1,.3-1.4,.5-.9,.4-1.3,.7l-.7,.4c-1.1-5.7-1.6-12.5-2.3-18.4l1.2,1.1h0Zm7.2,11.4c.9,0,1.7,0,2.6,.1,.1,.4,.3,.8,.6,1.1h-.1c-1-.2-2.1-.2-3.1-.2s-1.9,.1-2.9,.3l-.6,.2c-.5-3.7-.8-6.1-1.2-9.7l.6,.2c.1,0,.3,0,.4-.1l1.1,8.3h.1c.8-.1,1.6-.2,2.5-.2h0ZM6.1,21l-.7,.7-.7,.7-1-5.3,1.5-1,.9,4.9h0Zm3.7-3.8l-.5,.6-2.2,2.2-1.4-8.1,3.3-.5,.8,5.8Zm8.9-8.9l-7.9,7.9-1.2-10.2h.1c.4,0,.7,.1,1.1,.1s.7,.1,1.1,.1c.4,.1,.7,.1,1.1,.2,.4,.1,.8,.1,1.1,.2,.4,.1,.8,.2,1.2,.3,.4,.1,.8,.2,1.2,.4,.4,.2,.8,.3,1.2,.5,.3,.2,.7,.3,1,.5h0ZM26.9,.1c-2.4,2.3-4.7,4.7-7.1,7.1l-.3,.3c-.1-.1-.3-.2-.5-.3-.3-.1-.7-.3-1.1-.4s-.8-.4-1.2-.5-.8-.3-1.2-.4-.8-.2-1.2-.3-.9-.2-1.4-.3c-.4-.1-.9-.1-1.3-.2-.4-.1-.9-.1-1.3-.1s-.8,0-1.3-.1h-.6l.5,5.4-4.4,.7,.5,4-2.5,1.6c.5,2.2,.9,4.5,1.2,6.7h0c-.3,.3-.5,.5-.8,.8-1,1-1.9,1.9-2.9,2.9l3.2,2.9,1,.9h0l1.2,1.1,2.2,2,.3-.4,.3-.3-4.2-3.7-2.7-2.4,8.9-8.8L27.2,1.4c-.1-.5-.2-.9-.3-1.3h0Zm21.4,20.1l-.2-.2,.2,.2Zm-10.4,23.4c2.6-2.5,5.1-5,7.7-7.6l-1.1,7.5h-.1c-.7-.1-1.3-.2-2.1-.2h-2.4c-.8,.1-1.4,.1-2,.2,.1,.1,0,.1,0,.1Zm-2.6,2.6h0l1-1c.6-.2,1.1-.3,1.7-.4,.6-.1,1.3-.2,2.2-.3,.8-.1,1.7-.1,2.5,0,.8,0,1.5,.2,2.2,.3l.6,.1c.5-3.3,1-6.7,1.4-10l.9-.9,1.5-1.5-2.1,15h-.1c-.4-.2-.8-.4-1.3-.6-.4-.2-.9-.3-1.3-.5-.5-.1-.9-.2-1.4-.3s-1-.2-1.5-.2-1-.1-1.5-.1h-1.6c-.5,0-1.1,.1-1.7,.2-.5,0-1,.1-1.5,.2h0Zm-7.9,6.4c0,.4,.1,.9,.1,1.3,1.7-1.7,3.8-3.8,5.5-5.5l1-1,.9-.2c.6-.1,1.2-.2,1.7-.3,.6-.1,1.1-.1,1.7-.2h1.7c.5,0,1,0,1.5,.1s1.1,.1,1.6,.2,1,.2,1.5,.4,1,.3,1.4,.5,.9,.4,1.3,.7l.7,.4c1.1-5.8,1.7-12.1,2.5-18h0c.3-.4,.7-.7,1.1-1,1.1-1.1,2.2-2.1,3.3-3.2l-3.5-3.6-.8-.8h0l-.9-.7-.8-.9-.7-.7c.3-1.5,.6-2.9,.9-4.4l1.5,1-.9,5h0l.9,.9c.4-2.1,.8-4.2,1.2-6.3l-2.5-1.6,.5-4-4.4-.6,.3-5.3c-1.7,0-2.9,.1-4.7,.4-1.4,.3-2.7,.7-4.3,1.3h0c.3,.3,.5,.6,.8,.8,.5-.2,.9-.3,1.3-.5,.4-.1,.8-.3,1.2-.3,.4-.1,.7-.2,1.1-.2,.4-.1,.8-.1,1.1-.2,.4-.1,.7-.1,1.1-.2,.5,0,.9-.1,1.2-.1h.1l-.9,8.9,.7,.2,.3,.1,.5-3.9,3.3,.5c-.4,2.5-.8,5.1-1.3,7.6l.8,.8h0l-.8-.8-2.4-2.5-.1,.3-.4,.4c3.1,3.2,6.1,6.3,9.2,9.5-8.8,8.7-17.4,17-26.1,25.7h0Z"/>
      <path class="cls-2" d="M40.3,8.4c1.4,0,2.5,1.1,2.5,2.5s-1.1,2.5-2.5,2.5-2.5-1.1-2.5-2.5,1.1-2.5,2.5-2.5"/>
    </g>
  </g>
</svg>